<?xml version="1.0" encoding="UTF-8"?>
<svg width="108px" height="108px" viewBox="0 0 108 108" version="1.1" xmlns="http://www.w3.org/2000/svg" xmlns:xlink="http://www.w3.org/1999/xlink">
    <title>Android/App Icon/mipmap-anydpi-v26/ic_foreground</title>
    <g id="3-Review" stroke="none" stroke-width="1" fill="none" fill-rule="evenodd">
        <g id="No-Mask" fill-rule="nonzero">
            <g id="Icon" transform="translate(27.000000, 27.000000)">
                <g id="Q" fill="#F73387">
                    <path d="M27,0 C41.9116882,0 54,12.0883118 54,27 C54,41.9116882 41.9116882,54 27,54 C12.0883118,54 0,41.9116882 0,27 C0,12.0883118 12.0883118,0 27,0 Z M27,6 C15.4020203,6 6,15.4020203 6,27 C6,38.5979797 15.4020203,48 27,48 C38.5979797,48 48,38.5979797 48,27 C48,15.4020203 38.5979797,6 27,6 Z" id="Oval"></path>
                    <path d="M35.9314625,35.9314625 C37.1609931,34.701932 39.1468166,34.6896367 40.391473,35.8945766 L40.4289615,35.9314625 L52.0685375,47.5710385 C53.3104875,48.8129885 53.3104875,50.8265874 52.0685375,52.0685375 C50.8390069,53.298068 48.8531834,53.3103633 47.608527,52.1054234 L47.5710385,52.0685375 L35.9314625,40.4289615 C34.6895125,39.1870115 34.6895125,37.1734126 35.9314625,35.9314625 Z" id="Line"></path>
                </g>
                <g id="Z" transform="translate(13.000000, 14.000000)" fill="#B8FF01">
                    <path d="M24.0580064,0 C25.6804545,-0.00240332269 26.9976284,1.33210774 27,2.98071714 C27.0023415,4.61284045 25.7151663,5.94094015 24.1151628,5.96967403 L24.0665831,5.970146 L3.94199356,6 C2.31954553,6.00240332 1.00237158,4.66789226 1,3.01928286 C0.997658499,1.38715955 2.28483375,0.0590598453 3.88483718,0.0303259686 L3.93341688,0.0298539954 L24.0580064,0 Z" id="Line-2"></path>
                    <path d="M22.7248991,0.834103619 C23.9589788,-0.303626548 25.9283834,-0.273706634 27.1236873,0.900931617 C28.3070382,2.06382349 28.2880633,3.91269394 27.0901392,5.0534935 L27.0534776,5.08784501 L5.27510091,25.1658964 C4.04102118,26.3036265 2.0716166,26.2737066 0.876312656,25.0990684 C-0.307038247,23.9361765 -0.288063309,22.0873061 0.909860848,20.9465065 L0.946522422,20.912155 L22.7248991,0.834103619 Z" id="Line-3"></path>
                    <path d="M3.15401921,20 L24.8551223,20.0298508 C26.5945128,20.0322434 28.002521,21.3706464 28,23.0192576 C27.9974975,24.6513827 26.6134723,25.9756707 24.8980632,25.9996717 L24.8459808,26 L3.14487772,25.9701492 C1.40548724,25.9677566 -0.00252096216,24.6293536 0,22.9807424 C0.00250249673,21.3486173 1.38652766,20.0243293 3.10193676,20.0003283 L3.15401921,20 Z" id="Line-2-Copy"></path>
                </g>
                <path d="M37,32 C39.7614237,32 42,34.2385763 42,37 C42,39.7614237 39.7614237,42 37,42 C34.2385763,42 32,39.7614237 32,37 C32,34.2385763 34.2385763,32 37,32 Z M37,34 C35.3431458,34 34,35.3431458 34,37 C34,38.6568542 35.3431458,40 37,40 C38.6568542,40 40,38.6568542 40,37 C40,35.3431458 38.6568542,34 37,34 Z" id="Oval" fill="#1C1C1E"></path>
            </g>
        </g>
    </g>
</svg>